TRAIL_071_grf.mot
nRows=50
nColumns=19

name TRAIL_071_grf.mot
datacolumns 19
datarows 50
range 0.6750000715255737 0.7158333659172058
endheader
time	grf_right_vx	grf_right_vy	grf_right_vz	grf_right_px	grf_right_py	grf_right_pz	grf_left_vx	grf_left_vy	grf_left_vz	grf_left_px	grf_left_py	grf_left_pz	grf_right_tx	grf_right_ty	grf_right_tz	grf_left_tx	grf_left_ty	grf_left_tz
0.6750000715255737	241.20620727539062	864.5632934570312	6.563380718231201	2.152505023730725	0.0	0.05795766038489458	0.0	-7.414105134365105	0.0	0.0	0.0	0.0	0.0	0.0	0.0	0.0	0.0	0.0
0.6758334040641785	240.0089569091797	842.8587646484375	6.768977165222168	2.1524033534453664	0.0	0.058307189521957015	0.0	-7.450474711496311	0.0	0.0	0.0	0.0	0.0	0.0	0.0	0.0	0.0	0.0
0.6766667366027832	238.6450958251953	822.5424194335938	7.259974002838135	2.152364170534129	0.0	0.05840488621476447	0.0	-7.295617681950644	0.0	0.0	0.0	0.0	0.0	0.0	0.0	0.0	0.0	0.0
0.6775000691413879	236.978515625	802.80322265625	7.801496982574463	2.1524340115200835	0.0	0.058493892256224034	0.0	-7.184080451179913	0.0	0.0	0.0	0.0	0.0	0.0	0.0	0.0	0.0	0.0
0.6783334016799927	235.0840301513672	783.3753662109375	8.327849388122559	2.152685045848838	0.0	0.05848894781271574	0.0	-7.16277740594374	0.0	0.0	0.0	0.0	0.0	0.0	0.0	0.0	0.0	0.0
0.6791667342185974	233.03262329101562	763.8701782226562	8.83902645111084	2.1530737568674745	0.0	0.05831551553027581	0.0	-7.125385828176045	0.0	0.0	0.0	0.0	0.0	0.0	0.0	0.0	0.0	0.0
0.6800000667572021	230.67640686035156	743.10791015625	9.297224998474121	2.153278506012016	0.0	0.05830302668566689	0.0	-6.856194490048285	0.0	0.0	0.0	0.0	0.0	0.0	0.0	0.0	0.0	0.0
0.6808333992958069	228.01222229003906	722.9679565429688	9.758371353149414	2.153151034166205	0.0	0.05840027489813726	0.0	-6.614715129114257	0.0	0.0	0.0	0.0	0.0	0.0	0.0	0.0	0.0	0.0
0.6816667318344116	224.805908203125	702.4031372070312	9.815353393554688	2.153049963395387	0.0	0.0585233651824687	0.0	-6.552962102620277	0.0	0.0	0.0	0.0	0.0	0.0	0.0	0.0	0.0	0.0
0.6825000643730164	221.7213134765625	682.7123413085938	10.144617080688477	2.1534812106356584	0.0	0.05859793046395623	0.0	-6.50616920865629	0.0	0.0	0.0	0.0	0.0	0.0	0.0	0.0	0.0	0.0
0.6833333969116211	218.59315490722656	663.0979614257812	10.652000427246094	2.1538499428522404	0.0	0.05856966781677819	0.0	-6.339509190834048	0.0	0.0	0.0	0.0	0.0	0.0	0.0	0.0	0.0	0.0
0.6841667294502258	215.04563903808594	642.7227172851562	11.070938110351562	2.153551858147838	0.0	0.05852314879391285	0.0	-6.094820539828469	0.0	0.0	0.0	0.0	0.0	0.0	0.0	0.0	0.0	0.0
0.6850000619888306	211.1114044189453	622.7660522460938	11.560652732849121	2.153267450139599	0.0	0.05882281923613919	0.0	-6.133872664717877	0.0	0.0	0.0	0.0	0.0	0.0	0.0	0.0	0.0	0.0
0.6858333945274353	207.31178283691406	603.6777954101562	12.053476333618164	2.1539672502923404	0.0	0.05888626307731393	0.0	-5.911663130393303	0.0	0.0	0.0	0.0	0.0	0.0	0.0	0.0	0.0	0.0
0.68666672706604	203.01531982421875	584.03857421875	12.493461608886719	2.154158131478701	0.0	0.05879596465963133	0.0	-5.652689832418796	0.0	0.0	0.0	0.0	0.0	0.0	0.0	0.0	0.0	0.0
0.6875000596046448	198.51002502441406	563.226806640625	12.646941184997559	2.1543342422951324	0.0	0.05877458585869688	0.0	-5.462845108267559	0.0	0.0	0.0	0.0	0.0	0.0	0.0	0.0	0.0	0.0
0.6883333921432495	194.0660858154297	542.19970703125	12.787764549255371	2.1545680075573785	0.0	0.0587185208143719	0.0	-5.24257189860469	0.0	0.0	0.0	0.0	0.0	0.0	0.0	0.0	0.0	0.0
0.6891667246818542	189.83856201171875	522.0970458984375	13.144887924194336	2.154802597313016	0.0	0.05853319607936858	0.0	-4.938862500023709	0.0	0.0	0.0	0.0	0.0	0.0	0.0	0.0	0.0	0.0
0.690000057220459	185.7699432373047	502.84381103515625	13.349953651428223	2.1552169693082166	0.0	0.05854990282464967	0.0	-4.802755678738924	0.0	0.0	0.0	0.0	0.0	0.0	0.0	0.0	0.0	0.0
0.6908333897590637	181.20626831054688	482.0580139160156	13.666581153869629	2.155414174149562	0.0	0.05858029637668938	0.0	-4.604990997115995	0.0	0.0	0.0	0.0	0.0	0.0	0.0	0.0	0.0	0.0
0.6916667222976685	175.97738647460938	461.2396240234375	13.335748672485352	2.1553982924369524	0.0	0.05856954839326933	0.0	-4.393391878562171	0.0	0.0	0.0	0.0	0.0	0.0	0.0	0.0	0.0	0.0
0.6925000548362732	171.23239135742188	441.2728271484375	12.859631538391113	2.1554776258478308	0.0	0.05831386243724446	0.0	-4.183593756611196	0.0	0.0	0.0	0.0	0.0	0.0	0.0	0.0	0.0	0.0
0.6933333873748779	166.7058868408203	421.653564453125	12.594551086425781	2.15566262185364	0.0	0.058312674422549504	0.0	-4.012960089574769	0.0	0.0	0.0	0.0	0.0	0.0	0.0	0.0	0.0	0.0
0.6941667199134827	161.72177124023438	401.76300048828125	12.600380897521973	2.1558660630483737	0.0	0.05876391611919363	0.0	-3.9122031552843435	0.0	0.0	0.0	0.0	0.0	0.0	0.0	0.0	0.0	0.0
0.6950000524520874	156.19691467285156	382.1406555175781	12.48995590209961	2.1561651033108986	0.0	0.058249432098537834	0.0	-3.8563408555770686	0.0	0.0	0.0	0.0	0.0	0.0	0.0	0.0	0.0	0.0
0.6958333849906921	150.79791259765625	361.7579650878906	12.196426391601562	2.1566603291182136	0.0	0.0583199364357494	0.0	-3.694189489666252	0.0	0.0	0.0	0.0	0.0	0.0	0.0	0.0	0.0	0.0
0.6966667175292969	146.0301513671875	343.3565368652344	11.88180160522461	2.157230401792684	0.0	0.05777817088770154	0.0	-3.4440616900519605	0.0	0.0	0.0	0.0	0.0	0.0	0.0	0.0	0.0	0.0
0.6975000500679016	141.26605224609375	326.06610107421875	11.907299041748047	2.1576802970657223	0.0	0.057920381215848415	0.0	-3.2966617487098193	0.0	0.0	0.0	0.0	0.0	0.0	0.0	0.0	0.0	0.0
0.6983333826065063	136.61904907226562	309.3600158691406	12.077742576599121	2.157962226730447	0.0	0.05835985359600515	0.0	-3.2160402735727156	0.0	0.0	0.0	0.0	0.0	0.0	0.0	0.0	0.0	0.0
0.6991667151451111	132.18368530273438	293.021484375	11.952411651611328	2.157878337368808	0.0	0.058134879436256615	0.0	-3.0818578637160043	0.0	0.0	0.0	0.0	0.0	0.0	0.0	0.0	0.0	0.0
0.7000000476837158	127.27552032470703	277.1099548339844	11.15588665008545	2.156677664791645	0.0	0.05724102956339727	0.0	-2.8528291047003136	0.0	0.0	0.0	0.0	0.0	0.0	0.0	0.0	0.0	0.0
0.7008333802223206	122.66685485839844	263.4825439453125	10.687719345092773	2.1567163641896925	0.0	0.05748129827914972	0.0	-2.7609139290931437	0.0	0.0	0.0	0.0	0.0	0.0	0.0	0.0	0.0	0.0
0.7016667127609253	117.60678100585938	251.1680450439453	10.417489051818848	2.1572585571749765	0.0	0.057190607338427846	0.0	-2.617989605781411	0.0	0.0	0.0	0.0	0.0	0.0	0.0	0.0	0.0	0.0
0.70250004529953	112.42404174804688	238.725341796875	10.044975280761719	2.156974606775132	0.0	0.05633523825154474	0.0	-2.453019104743498	0.0	0.0	0.0	0.0	0.0	0.0	0.0	0.0	0.0	0.0
0.7033333778381348	107.31657409667969	227.0919952392578	9.437798500061035	2.1566624251421036	0.0	0.05532575085027924	0.0	-2.281947000660445	0.0	0.0	0.0	0.0	0.0	0.0	0.0	0.0	0.0	0.0
0.7041667103767395	102.34437561035156	217.18795776367188	8.629271507263184	2.1573538738222116	0.0	0.05479519643414876	0.0	-2.19311693051809	0.0	0.0	0.0	0.0	0.0	0.0	0.0	0.0	0.0	0.0
0.7050000429153442	97.42240142822266	207.51927185058594	7.81626033782959	2.1577547046466825	0.0	0.055226829716395254	0.0	-2.4262201875363854	0.0	0.0	0.0	0.0	0.0	0.0	0.0	0.0	0.0	0.0
0.705833375453949	92.07210540771484	195.01034545898438	8.3441162109375	2.1567578978425113	0.0	0.053835485034439245	0.0	-2.4617651806109904	0.0	0.0	0.0	0.0	0.0	0.0	0.0	0.0	0.0	0.0
0.7066667079925537	87.16034698486328	185.64312744140625	7.586486339569092	2.1573716401180376	0.0	0.053453428562620586	0.0	-2.404106062205649	0.0	0.0	0.0	0.0	0.0	0.0	0.0	0.0	0.0	0.0
0.7075000405311584	82.54792022705078	177.40740966796875	6.468132019042969	2.1574104035778077	0.0	0.05237366592944026	0.0	-2.2041486216037756	0.0	0.0	0.0	0.0	0.0	0.0	0.0	0.0	0.0	0.0
0.7083333730697632	78.29753112792969	169.10256958007812	5.836446762084961	2.1563794029480254	0.0	0.05072798178679294	0.0	-2.083952348887291	0.0	0.0	0.0	0.0	0.0	0.0	0.0	0.0	0.0	0.0
0.7091667056083679	74.49545288085938	160.16476440429688	5.829812526702881	2.1547861257838985	0.0	0.049471143865588485	0.0	-2.1836622009144664	0.0	0.0	0.0	0.0	0.0	0.0	0.0	0.0	0.0	0.0
0.7100000381469727	71.0731201171875	150.4942169189453	5.2459564208984375	2.1531995637441	0.0	0.04902882811219844	0.0	-2.2069796308650735	0.0	0.0	0.0	0.0	0.0	0.0	0.0	0.0	0.0	0.0
0.7108333706855774	67.70281982421875	142.79307556152344	4.333881378173828	2.1554849680394335	0.0	0.049384293914427	0.0	-2.208149251567969	0.0	0.0	0.0	0.0	0.0	0.0	0.0	0.0	0.0	0.0
0.7116667032241821	64.3231430053711	135.310302734375	3.4787981510162354	2.152727186512788	0.0	0.048501448269970604	0.0	-2.2038182404834883	0.0	0.0	0.0	0.0	0.0	0.0	0.0	0.0	0.0	0.0
0.7125000357627869	61.271488189697266	127.36485290527344	3.3281807899475098	2.1506633801094486	0.0	0.046621179749278485	0.0	-2.2421426512703317	0.0	0.0	0.0	0.0	0.0	0.0	0.0	0.0	0.0	0.0
0.7133333683013916	58.639869689941406	119.30618286132812	3.381107807159424	2.1492231764481797	0.0	0.045284732020710816	0.0	-2.342005142881776	0.0	0.0	0.0	0.0	0.0	0.0	0.0	0.0	0.0	0.0
0.7141667008399963	56.34909439086914	111.56657409667969	2.7218470573425293	2.1467075365389094	0.0	0.04560054247087986	0.0	-2.435216153785476	0.0	0.0	0.0	0.0	0.0	0.0	0.0	0.0	0.0	0.0
0.7150000333786011	54.222938537597656	103.7135238647461	0.7534453868865967	2.1457438568402116	0.0	0.04562969551848617	0.0	-2.3038803260861447	0.0	0.0	0.0	0.0	0.0	0.0	0.0	0.0	0.0	0.0
0.7158333659172058	51.58230972290039	96.07821655273438	0.24068312346935272	2.1395847758363957	0.0	0.042931016061809935	0.0	-2.3664554931907493	0.0	0.0	0.0	0.0	0.0	0.0	0.0	0.0	0.0	0.0
